ffmpeg started on 2016-12-07 at 23:00:02
Report written to "Output/x264/results/ffmpeg/sintelslower3500k.log"
Command line:
Tools/ffmpeg/ffmpeg -benchmark -y -i Input/y4m/sintel.y4m -c:v libx264 -preset slower -b:v 3500k -an Output/x264/encoded/sintelslower3500k.mkv
ffmpeg version N-82227-gdb23fde Copyright (c) 2000-2016 the FFmpeg developers
  built with gcc 5.4.0 (Ubuntu 5.4.0-6ubuntu1~16.04.2) 20160609
  configuration: --prefix=/home/jaroslav/ffmpeg_build --pkg-config-flags=--static --extra-cflags=-I/home/jaroslav/ffmpeg_build/include --extra-ldflags=-L/home/jaroslav/ffmpeg_build/lib --bindir=/home/jaroslav/bin --enable-gpl --enable-libass --enable-libfdk-aac --enable-libfreetype --enable-libmp3lame --enable-libopus --enable-libtheora --enable-libvorbis --enable-libvpx --enable-libx264 --enable-libx265 --enable-nvenc --enable-libmfx --enable-libxvid --enable-libgsm --enable-libopencore-amrnb --enable-version3 --enable-nonfree
  libavutil      55. 35.100 / 55. 35.100
  libavcodec     57. 66.101 / 57. 66.101
  libavformat    57. 57.100 / 57. 57.100
  libavdevice    57.  2.100 / 57.  2.100
  libavfilter     6. 66.100 /  6. 66.100
  libswscale      4.  3.100 /  4.  3.100
  libswresample   2.  4.100 /  2.  4.100
  libpostproc    54.  2.100 / 54.  2.100
Input #0, yuv4mpegpipe, from 'Input/y4m/sintel.y4m':
  Duration: 00:00:20.83, start: 0.000000, bitrate: 2057307 kb/s
    Stream #0:0: Video: rawvideo (I420 / 0x30323449), yuv420p(progressive), 4096x1744, SAR 1:1 DAR 256:109, 24 fps, 24 tbr, 24 tbn, 24 tbc
[libx264 @ 0x2fda1c0] using SAR=1/1
[libx264 @ 0x2fda1c0] DPB size (8 frames, 223232 mbs) > level limit (6 frames, 184320 mbs)
[libx264 @ 0x2fda1c0] using cpu capabilities: MMX2 SSE2Fast SSSE3 SSE4.2 AVX FMA3 AVX2 LZCNT BMI2
[libx264 @ 0x2fda1c0] profile High, level 5.2
[libx264 @ 0x2fda1c0] 264 - core 148 - H.264/MPEG-4 AVC codec - Copyleft 2003-2016 - http://www.videolan.org/x264.html - options: cabac=1 ref=8 deblock=1:0:0 analyse=0x3:0x133 me=umh subme=9 psy=1 psy_rd=1.00:0.00 mixed_ref=1 me_range=16 chroma_me=1 trellis=2 8x8dct=1 cqm=0 deadzone=21,11 fast_pskip=1 chroma_qp_offset=-2 threads=6 lookahead_threads=1 sliced_threads=0 nr=0 decimate=1 interlaced=0 bluray_compat=0 constrained_intra=0 bframes=3 b_pyramid=2 b_adapt=2 b_bias=0 direct=3 weightb=1 open_gop=0 weightp=2 keyint=250 keyint_min=24 scenecut=40 intra_refresh=0 rc_lookahead=60 rc=abr mbtree=1 bitrate=3500 ratetol=1.0 qcomp=0.60 qpmin=0 qpmax=69 qpstep=4 ip_ratio=1.40 aq=1:1.00
Output #0, matroska, to 'Output/x264/encoded/sintelslower3500k.mkv':
  Metadata:
    encoder         : Lavf57.57.100
    Stream #0:0: Video: h264 (libx264) (H264 / 0x34363248), yuv420p, 4096x1744 [SAR 1:1 DAR 256:109], q=-1--1, 3500 kb/s, 24 fps, 1k tbn, 24 tbc
    Metadata:
      encoder         : Lavc57.66.101 libx264
    Side data:
      cpb: bitrate max/min/avg: 0/0/3500000 buffer size: 0 vbv_delay: -1
Stream mapping:
  Stream #0:0 -> #0:0 (rawvideo (native) -> h264 (libx264))
Press [q] to stop, [?] for help
frame=   10 fps=0.0 q=0.0 size=       0kB time=00:00:00.00 bitrate=N/A speed=   0x    frame=   19 fps= 18 q=0.0 size=       0kB time=00:00:00.00 bitrate=N/A speed=   0x    frame=   28 fps= 17 q=0.0 size=       0kB time=00:00:00.00 bitrate=N/A speed=   0x    frame=   37 fps= 17 q=0.0 size=       0kB time=00:00:00.00 bitrate=N/A speed=   0x    frame=   41 fps= 16 q=0.0 size=       0kB time=00:00:00.00 bitrate=N/A speed=   0x    frame=   50 fps= 16 q=0.0 size=       0kB time=00:00:00.00 bitrate=N/A speed=   0x    frame=   59 fps= 16 q=0.0 size=       0kB time=00:00:00.00 bitrate=N/A speed=   0x    frame=   67 fps=6.2 q=0.0 size=       0kB time=00:00:00.00 bitrate=N/A speed=   0x    frame=   71 fps=6.2 q=33.0 size=       1kB time=-00:00:00.08 bitrate=N/A speed=N/A    frame=   73 fps=6.0 q=43.0 size=       1kB time=00:00:00.00 bitrate=5888.0kbits/s speed=8.24e-05x    frame=   75 fps=5.8 q=40.0 size=       1kB time=00:00:00.08 bitrate=  70.1kbits/s speed=0.00654x    frame=   76 fps=5.7 q=51.0 size=       1kB time=00:00:00.12 bitrate=  46.7kbits/s speed=0.0094x    frame=   77 fps=5.4 q=47.0 size=       1kB time=00:00:00.16 bitrate=  35.0kbits/s speed=0.0118x    frame=   79 fps=5.4 q=52.0 size=       1kB time=00:00:00.25 bitrate=  23.5kbits/s speed=0.017x    frame=   81 fps=5.3 q=52.0 size=       1kB time=00:00:00.33 bitrate=  17.6kbits/s speed=0.0217x    frame=   83 fps=5.1 q=51.0 size=       1kB time=00:00:00.41 bitrate=  14.1kbits/s speed=0.0259x    frame=   85 fps=4.9 q=51.0 size=       1kB time=00:00:00.50 bitrate=  11.8kbits/s speed=0.029x    frame=   86 fps=4.8 q=52.0 size=       1kB time=00:00:00.54 bitrate=  10.8kbits/s speed=0.0304x    frame=   90 fps=4.9 q=52.0 size=       1kB time=00:00:00.70 bitrate=   8.3kbits/s speed=0.0382x    frame=   92 fps=4.7 q=52.0 size=       1kB time=00:00:00.79 bitrate=   7.4kbits/s speed=0.0403x    frame=   93 fps=4.6 q=52.0 size=       1kB time=00:00:00.83 bitrate=   7.1kbits/s speed=0.0412x    frame=   95 fps=4.5 q=51.0 size=       1kB time=00:00:00.91 bitrate=   6.4kbits/s speed=0.0435x    frame=   98 fps=4.5 q=51.0 size=       1kB time=00:00:01.04 bitrate=   5.6kbits/s speed=0.0481x    frame=  100 fps=4.4 q=51.0 size=       1kB time=00:00:01.12 bitrate=   5.2kbits/s speed=0.0498x    frame=  101 fps=4.4 q=51.0 size=       1kB time=00:00:01.16 bitrate=   5.0kbits/s speed=0.0504x    frame=  102 fps=4.3 q=51.0 size=       1kB time=00:00:01.20 bitrate=   4.9kbits/s speed=0.0507x    frame=  105 fps=4.3 q=51.0 size=       1kB time=00:00:01.33 bitrate=   4.4kbits/s speed=0.0545x    frame=  107 fps=4.2 q=51.0 size=       1kB time=00:00:01.41 bitrate=   4.2kbits/s speed=0.0563x    frame=  108 fps=4.2 q=51.0 size=       1kB time=00:00:01.45 bitrate=   4.0kbits/s speed=0.0564x    frame=  110 fps=4.1 q=51.0 size=       1kB time=00:00:01.54 bitrate=   3.8kbits/s speed=0.0581x    frame=  112 fps=4.1 q=50.0 size=       1kB time=00:00:01.62 bitrate=   3.6kbits/s speed=0.0597x    frame=  115 fps=4.1 q=50.0 size=       1kB time=00:00:01.75 bitrate=   3.4kbits/s speed=0.0629x    frame=  117 fps=4.1 q=50.0 size=       1kB time=00:00:01.83 bitrate=   3.2kbits/s speed=0.0644x    frame=  118 fps=4.1 q=50.0 size=       1kB time=00:00:01.87 bitrate=   3.1kbits/s speed=0.0647x    frame=  120 fps=4.0 q=50.0 size=       1kB time=00:00:01.95 bitrate=   3.0kbits/s speed=0.0661x    frame=  123 fps=4.0 q=50.0 size=       1kB time=00:00:02.08 bitrate=   2.8kbits/s speed=0.0684x    frame=  124 fps=4.0 q=50.0 size=       1kB time=00:00:02.12 bitrate=   2.8kbits/s speed=0.0679x    frame=  126 fps=3.9 q=50.0 size=       1kB time=00:00:02.20 bitrate=   2.7kbits/s speed=0.0688x    frame=  127 fps=3.9 q=50.0 size=       1kB time=00:00:02.25 bitrate=   2.6kbits/s speed=0.0688x    frame=  129 fps=3.9 q=50.0 size=       1kB time=00:00:02.33 bitrate=   2.5kbits/s speed=0.0697x    frame=  130 fps=3.8 q=50.0 size=       1kB time=00:00:02.37 bitrate=   2.5kbits/s speed=0.0695x    frame=  132 fps=3.8 q=50.0 size=       1kB time=00:00:02.45 bitrate=   2.4kbits/s speed=0.0706x    frame=  134 fps=3.7 q=50.0 size=       1kB time=00:00:02.54 bitrate=   2.3kbits/s speed=0.071x    frame=  137 fps=3.6 q=50.0 size=       1kB time=00:00:02.66 bitrate=   2.2kbits/s speed=0.0708x    frame=  139 fps=3.6 q=50.0 size=       1kB time=00:00:02.75 bitrate=   2.1kbits/s speed=0.0719x    frame=  141 fps=3.6 q=50.0 size=       1kB time=00:00:02.83 bitrate=   2.1kbits/s speed=0.073x    frame=  143 fps=3.5 q=50.0 size=       1kB time=00:00:02.91 bitrate=   2.0kbits/s speed=0.0724x    frame=  145 fps=3.5 q=50.0 size=       1kB time=00:00:03.00 bitrate=   2.0kbits/s speed=0.073x    frame=  147 fps=3.5 q=50.0 size=       1kB time=00:00:03.08 bitrate=   1.9kbits/s speed=0.0737x    frame=  149 fps=3.5 q=50.0 size=       1kB time=00:00:03.16 bitrate=   1.9kbits/s speed=0.0741x    frame=  150 fps=3.4 q=50.0 size=       1kB time=00:00:03.20 bitrate=   1.8kbits/s speed=0.0732x    frame=  152 fps=3.4 q=50.0 size=       1kB time=00:00:03.29 bitrate=   1.8kbits/s speed=0.0741x    frame=  154 fps=3.4 q=50.0 size=       1kB time=00:00:03.37 bitrate=   1.7kbits/s speed=0.0743x    frame=  156 fps=3.3 q=50.0 size=       1kB time=00:00:03.45 bitrate=   1.7kbits/s speed=0.0742x    frame=  157 fps=3.3 q=50.0 size=       1kB time=00:00:03.50 bitrate=   1.7kbits/s speed=0.0742x    frame=  159 fps=3.3 q=50.0 size=       1kB time=00:00:03.58 bitrate=   1.6kbits/s speed=0.0749x    frame=  160 fps=3.3 q=50.0 size=       1kB time=00:00:03.62 bitrate=   1.6kbits/s speed=0.0746x    frame=  162 fps=3.3 q=50.0 size=       1kB time=00:00:03.70 bitrate=   1.6kbits/s speed=0.0749x    frame=  164 fps=3.3 q=49.0 size=       1kB time=00:00:03.79 bitrate=   1.6kbits/s speed=0.0752x    frame=  166 fps=3.2 q=49.0 size=       1kB time=00:00:03.87 bitrate=   1.5kbits/s speed=0.0758x    frame=  167 fps=3.2 q=49.0 size=       1kB time=00:00:03.91 bitrate=   1.5kbits/s speed=0.0758x    frame=  170 fps=3.2 q=49.0 size=       1kB time=00:00:04.04 bitrate=   1.5kbits/s speed=0.0772x    frame=  171 fps=3.2 q=49.0 size=       1kB time=00:00:04.08 bitrate=   1.4kbits/s speed=0.0769x    frame=  173 fps=3.2 q=49.0 size=       1kB time=00:00:04.16 bitrate=   1.4kbits/s speed=0.0768x    frame=  177 fps=3.2 q=49.0 size=       1kB time=00:00:04.33 bitrate=   1.4kbits/s speed=0.0788x    frame=  179 fps=3.2 q=49.0 size=       1kB time=00:00:04.41 bitrate=   1.3kbits/s speed=0.0789x    frame=  182 fps=3.2 q=49.0 size=       1kB time=00:00:04.54 bitrate=   1.3kbits/s speed=0.0799x    frame=  184 fps=3.2 q=49.0 size=       1kB time=00:00:04.62 bitrate=   1.3kbits/s speed=0.0804x    frame=  190 fps=3.3 q=49.0 size=    2276kB time=00:00:04.87 bitrate=3823.8kbits/s speed=0.0839x    frame=  192 fps=3.3 q=49.0 size=    2276kB time=00:00:04.95 bitrate=3759.8kbits/s speed=0.0843x    frame=  194 fps=3.3 q=49.0 size=    2276kB time=00:00:05.04 bitrate=3697.1kbits/s speed=0.0849x    frame=  196 fps=3.3 q=49.0 size=    2276kB time=00:00:05.12 bitrate=3637.3kbits/s speed=0.0851x    frame=  198 fps=3.2 q=49.0 size=    2276kB time=00:00:05.20 bitrate=3579.3kbits/s speed=0.0851x    frame=  200 fps=3.2 q=49.0 size=    2276kB time=00:00:05.29 bitrate=3522.5kbits/s speed=0.0857x    frame=  202 fps=3.2 q=49.0 size=    2276kB time=00:00:05.37 bitrate=3468.1kbits/s speed=0.0859x    frame=  204 fps=3.2 q=49.0 size=    2276kB time=00:00:05.45 bitrate=3415.4kbits/s speed=0.0862x    frame=  206 fps=3.2 q=49.0 size=    2276kB time=00:00:05.54 bitrate=3363.6kbits/s speed=0.0865x    frame=  208 fps=3.2 q=49.0 size=    2276kB time=00:00:05.62 bitrate=3314.0kbits/s speed=0.0868x    frame=  211 fps=3.2 q=49.0 size=    2276kB time=00:00:05.75 bitrate=3242.0kbits/s speed=0.088x    frame=  213 fps=3.2 q=49.0 size=    2276kB time=00:00:05.83 bitrate=3195.9kbits/s speed=0.0884x    frame=  214 fps=3.2 q=49.0 size=    2276kB time=00:00:05.87 bitrate=3173.0kbits/s speed=0.0882x    frame=  217 fps=3.2 q=49.0 size=    2276kB time=00:00:06.00 bitrate=3106.9kbits/s speed=0.0892x    frame=  219 fps=3.2 q=49.0 size=    2276kB time=00:00:06.08 bitrate=3064.5kbits/s speed=0.0896x    frame=  221 fps=3.2 q=49.0 size=    2276kB time=00:00:06.16 bitrate=3022.8kbits/s speed=0.0899x    frame=  222 fps=3.2 q=49.0 size=    2276kB time=00:00:06.20 bitrate=3002.8kbits/s speed=0.0897x    frame=  226 fps=3.2 q=49.0 size=    2276kB time=00:00:06.37 bitrate=2924.2kbits/s speed=0.0914x    frame=  228 fps=3.2 q=49.0 size=    2276kB time=00:00:06.45 bitrate=2886.6kbits/s speed=0.0901x    frame=  231 fps=3.2 q=49.0 size=    2276kB time=00:00:06.58 bitrate=2831.8kbits/s speed=0.0911x    frame=  234 fps=3.2 q=49.0 size=    2276kB time=00:00:06.70 bitrate=2779.0kbits/s speed=0.0911x    frame=  236 fps=3.2 q=49.0 size=    2276kB time=00:00:06.79 bitrate=2744.7kbits/s speed=0.0912x    frame=  238 fps=3.2 q=49.0 size=    2276kB time=00:00:06.87 bitrate=2711.6kbits/s speed=0.0916x    frame=  239 fps=3.2 q=49.0 size=    2276kB time=00:00:06.91 bitrate=2695.1kbits/s speed=0.0915x    frame=  240 fps=3.1 q=49.0 size=    2276kB time=00:00:06.95 bitrate=2679.2kbits/s speed=0.0913x    frame=  242 fps=3.1 q=49.0 size=    2276kB time=00:00:07.04 bitrate=2647.3kbits/s speed=0.0915x    frame=  244 fps=3.1 q=49.0 size=    2276kB time=00:00:07.12 bitrate=2616.4kbits/s speed=0.0918x    frame=  246 fps=3.1 q=49.0 size=    2276kB time=00:00:07.20 bitrate=2586.3kbits/s speed=0.0917x    frame=  248 fps=3.1 q=49.0 size=    2276kB time=00:00:07.29 bitrate=2556.5kbits/s speed=0.0917x    frame=  250 fps=3.1 q=49.0 size=    2276kB time=00:00:07.37 bitrate=2527.7kbits/s speed=0.0918x    frame=  253 fps=3.1 q=49.0 size=    2276kB time=00:00:07.50 bitrate=2485.6kbits/s speed=0.0925x    frame=  260 fps=3.2 q=48.0 size=    3401kB time=00:00:07.79 bitrate=3575.2kbits/s speed=0.0953x    frame=  262 fps=3.2 q=48.0 size=    3401kB time=00:00:07.87 bitrate=3537.6kbits/s speed=0.0954x    frame=  265 fps=3.2 q=48.0 size=    3401kB time=00:00:08.00 bitrate=3482.3kbits/s speed=0.0963x    frame=  267 fps=3.2 q=48.0 size=    3401kB time=00:00:08.08 bitrate=3446.5kbits/s speed=0.0963x    frame=  268 fps=3.2 q=48.0 size=    3401kB time=00:00:08.12 bitrate=3428.7kbits/s speed=0.0961x    frame=  270 fps=3.2 q=48.0 size=    3401kB time=00:00:08.20 bitrate=3394.1kbits/s speed=0.0963x    frame=  272 fps=3.2 q=48.0 size=    3401kB time=00:00:08.29 bitrate=3359.7kbits/s speed=0.0963x    frame=  273 fps=3.2 q=48.0 size=    3401kB time=00:00:08.33 bitrate=3343.2kbits/s speed=0.0962x    frame=  277 fps=3.2 q=48.0 size=    3401kB time=00:00:08.50 bitrate=3277.5kbits/s speed=0.0972x    frame=  279 fps=3.1 q=48.0 size=    3401kB time=00:00:08.58 bitrate=3245.8kbits/s speed=0.0969x    frame=  285 fps=3.2 q=48.0 size=    3401kB time=00:00:08.83 bitrate=3153.9kbits/s speed=0.0985x    frame=  287 fps=3.2 q=48.0 size=    3401kB time=00:00:08.91 bitrate=3124.2kbits/s speed=0.0984x    frame=  290 fps=3.2 q=48.0 size=    3401kB time=00:00:09.04 bitrate=3081.0kbits/s speed=0.0991x    frame=  293 fps=3.2 q=48.0 size=    3401kB time=00:00:09.16 bitrate=3039.0kbits/s speed=0.0997x    frame=  296 fps=3.2 q=47.0 size=    3401kB time=00:00:09.29 bitrate=2998.2kbits/s speed= 0.1x    frame=  298 fps=3.2 q=47.0 size=    3401kB time=00:00:09.37 bitrate=2971.6kbits/s speed=0.101x    frame=  301 fps=3.2 q=47.0 size=    3401kB time=00:00:09.50 bitrate=2932.5kbits/s speed=0.101x    frame=  304 fps=3.2 q=47.0 size=    3401kB time=00:00:09.62 bitrate=2894.4kbits/s speed=0.102x    frame=  307 fps=3.2 q=47.0 size=    3401kB time=00:00:09.75 bitrate=2857.3kbits/s speed=0.102x    frame=  311 fps=3.2 q=47.0 size=    3401kB time=00:00:09.91 bitrate=2809.2kbits/s speed=0.103x    frame=  317 fps=3.3 q=47.0 size=    3401kB time=00:00:10.16 bitrate=2740.1kbits/s speed=0.104x    frame=  320 fps=3.2 q=47.0 size=    3401kB time=00:00:10.29 bitrate=2706.9kbits/s speed=0.104x    frame=  325 fps=3.3 q=46.0 size=    3401kB time=00:00:10.50 bitrate=2653.3kbits/s speed=0.106x    frame=  326 fps=3.3 q=46.0 size=    3401kB time=00:00:10.54 bitrate=2642.7kbits/s speed=0.105x    frame=  330 fps=3.3 q=46.0 size=    3401kB time=00:00:10.70 bitrate=2601.7kbits/s speed=0.106x    frame=  333 fps=3.3 q=46.0 size=    3401kB time=00:00:10.83 bitrate=2571.7kbits/s speed=0.107x    frame=  337 fps=3.3 q=46.0 size=    4382kB time=00:00:11.00 bitrate=3263.2kbits/s speed=0.108x    frame=  343 fps=3.4 q=46.0 size=    4382kB time=00:00:11.25 bitrate=3190.7kbits/s speed=0.11x    frame=  347 fps=3.4 q=46.0 size=    4382kB time=00:00:11.41 bitrate=3144.0kbits/s speed=0.111x    frame=  349 fps=3.4 q=45.0 size=    4382kB time=00:00:11.50 bitrate=3121.3kbits/s speed=0.111x    frame=  353 fps=3.4 q=45.0 size=    4382kB time=00:00:11.66 bitrate=3076.7kbits/s speed=0.112x    frame=  355 fps=3.4 q=45.0 size=    4382kB time=00:00:11.75 bitrate=3054.9kbits/s speed=0.112x    frame=  359 fps=3.4 q=45.0 size=    4382kB time=00:00:11.91 bitrate=3012.1kbits/s speed=0.113x    frame=  362 fps=3.4 q=45.0 size=    4382kB time=00:00:12.04 bitrate=2980.9kbits/s speed=0.113x    frame=  368 fps=3.4 q=45.0 size=    4382kB time=00:00:12.29 bitrate=2920.2kbits/s speed=0.115x    frame=  373 fps=3.5 q=45.0 size=    4382kB time=00:00:12.50 bitrate=2871.6kbits/s speed=0.116x    frame=  375 fps=3.5 q=45.0 size=    4382kB time=00:00:12.58 bitrate=2852.7kbits/s speed=0.116x    frame=  380 fps=3.5 q=44.0 size=    4382kB time=00:00:12.79 bitrate=2806.1kbits/s speed=0.117x    frame=  383 fps=3.5 q=44.0 size=    4382kB time=00:00:12.91 bitrate=2778.9kbits/s speed=0.118x    frame=  389 fps=3.5 q=44.0 size=    4382kB time=00:00:13.16 bitrate=2726.2kbits/s speed=0.119x    frame=  392 fps=3.5 q=44.0 size=    4382kB time=00:00:13.29 bitrate=2700.5kbits/s speed=0.12x    frame=  396 fps=3.6 q=43.0 size=    4382kB time=00:00:13.45 bitrate=2667.2kbits/s speed=0.121x    frame=  400 fps=3.6 q=43.0 size=    4382kB time=00:00:13.62 bitrate=2634.6kbits/s speed=0.122x    frame=  403 fps=3.6 q=43.0 size=    4382kB time=00:00:13.75 bitrate=2610.6kbits/s speed=0.122x    frame=  407 fps=3.6 q=43.0 size=    4382kB time=00:00:13.91 bitrate=2579.3kbits/s speed=0.123x    frame=  411 fps=3.6 q=43.0 size=    4382kB time=00:00:14.08 bitrate=2548.9kbits/s speed=0.124x    frame=  416 fps=3.6 q=43.0 size=    4382kB time=00:00:14.29 bitrate=2511.6kbits/s speed=0.125x    frame=  419 fps=3.6 q=42.0 size=    4382kB time=00:00:14.41 bitrate=2489.8kbits/s speed=0.125x    frame=  424 fps=3.7 q=42.0 size=    4382kB time=00:00:14.62 bitrate=2454.4kbits/s speed=0.126x    frame=  427 fps=3.7 q=42.0 size=    4382kB time=00:00:14.75 bitrate=2433.6kbits/s speed=0.127x    frame=  432 fps=3.7 q=42.0 size=    4382kB time=00:00:14.95 bitrate=2399.8kbits/s speed=0.128x    frame=  437 fps=3.7 q=42.0 size=    5261kB time=00:00:15.16 bitrate=2841.1kbits/s speed=0.129x    frame=  441 fps=3.7 q=41.0 size=    5261kB time=00:00:15.33 bitrate=2810.4kbits/s speed=0.13x    frame=  444 fps=3.7 q=41.0 size=    5261kB time=00:00:15.45 bitrate=2787.6kbits/s speed=0.13x    frame=  447 fps=3.7 q=41.0 size=    5261kB time=00:00:15.58 bitrate=2765.3kbits/s speed=0.13x    frame=  450 fps=3.7 q=41.0 size=    5261kB time=00:00:15.70 bitrate=2743.3kbits/s speed=0.13x    frame=  454 fps=3.7 q=41.0 size=    5261kB time=00:00:15.87 bitrate=2714.4kbits/s speed=0.131x    frame=  456 fps=3.7 q=41.0 size=    5261kB time=00:00:15.95 bitrate=2700.3kbits/s speed=0.131x    frame=  458 fps=3.7 q=41.0 size=    5261kB time=00:00:16.04 bitrate=2686.2kbits/s speed=0.131x    frame=  462 fps=3.8 q=41.0 size=    5261kB time=00:00:16.20 bitrate=2658.7kbits/s speed=0.132x    frame=  464 fps=3.7 q=41.0 size=    5261kB time=00:00:16.29 bitrate=2644.9kbits/s speed=0.131x    frame=  468 fps=3.7 q=41.0 size=    5261kB time=00:00:16.45 bitrate=2618.3kbits/s speed=0.132x    frame=  471 fps=3.7 q=41.0 size=    5261kB time=00:00:16.58 bitrate=2598.5kbits/s speed=0.131x    frame=  477 fps=3.7 q=41.0 size=    5261kB time=00:00:16.83 bitrate=2559.9kbits/s speed=0.132x    frame=  483 fps=3.8 q=41.0 size=    5261kB time=00:00:17.08 bitrate=2522.5kbits/s speed=0.133x    frame=  485 fps=3.7 q=41.0 size=    5261kB time=00:00:17.16 bitrate=2510.1kbits/s speed=0.133x    frame=  493 fps=3.8 q=41.0 size=    6090kB time=00:00:17.50 bitrate=2850.9kbits/s speed=0.135x    frame=  494 fps=3.8 q=41.0 size=    6090kB time=00:00:17.54 bitrate=2844.0kbits/s speed=0.134x    frame=  499 fps=3.8 q=41.0 size=    6090kB time=00:00:17.75 bitrate=2810.7kbits/s speed=0.135x    frame=  500 fps=3.5 q=-1.0 Lsize=    7202kB time=00:00:20.70 bitrate=2849.1kbits/s speed=0.144x    
video:7198kB audio:0kB subtitle:0kB other streams:0kB global headers:0kB muxing overhead: 0.063035%
bench: utime=526.932s
bench: maxrss=2148272kB
[libx264 @ 0x2fda1c0] frame I:6     Avg QP:35.25  size: 62836
[libx264 @ 0x2fda1c0] frame P:273   Avg QP:41.91  size: 18539
[libx264 @ 0x2fda1c0] frame B:221   Avg QP:41.20  size:  8741
[libx264 @ 0x2fda1c0] consecutive B-frames: 35.2% 11.6% 18.0% 35.2%
[libx264 @ 0x2fda1c0] mb I  I16..4: 24.0% 75.1%  0.9%
[libx264 @ 0x2fda1c0] mb P  I16..4:  8.3% 36.6%  0.0%  P16..4: 10.2%  0.3%  0.3%  0.0%  0.0%    skip:44.3%
[libx264 @ 0x2fda1c0] mb B  I16..4:  0.7%  1.1%  0.0%  B16..8: 21.8%  0.6%  0.1%  direct: 0.2%  skip:75.6%  L0:38.9% L1:60.6% BI: 0.5%
[libx264 @ 0x2fda1c0] final ratefactor: 38.73
[libx264 @ 0x2fda1c0] 8x8 transform intra:80.5% inter:92.9%
[libx264 @ 0x2fda1c0] direct mvs  spatial:99.1% temporal:0.9%
[libx264 @ 0x2fda1c0] coded y,uvDC,uvAC intra: 6.8% 14.0% 0.1% inter: 0.9% 1.0% 0.0%
[libx264 @ 0x2fda1c0] i16 v,h,dc,p: 25% 35%  6% 33%
[libx264 @ 0x2fda1c0] i8 v,h,dc,ddl,ddr,vr,hd,vl,hu: 27%  8% 61%  1%  1%  1%  1%  0%  1%
[libx264 @ 0x2fda1c0] i4 v,h,dc,ddl,ddr,vr,hd,vl,hu: 18% 15% 11%  9% 11%  9% 12%  6% 11%
[libx264 @ 0x2fda1c0] i8c dc,h,v,p: 94%  4%  2%  0%
[libx264 @ 0x2fda1c0] Weighted P-Frames: Y:1.1% UV:0.7%
[libx264 @ 0x2fda1c0] ref P L0: 56.5%  7.2% 16.7%  5.2%  4.1%  3.4%  3.9%  2.2%  0.8%  0.0%
[libx264 @ 0x2fda1c0] ref B L0: 84.9%  7.6%  3.8%  1.5%  1.1%  0.8%  0.3%
[libx264 @ 0x2fda1c0] ref B L1: 98.2%  1.8%
[libx264 @ 0x2fda1c0] kb/s:2830.02
